<svg id="Capa_1" enable-background="new 0 0 512 512" height="512" viewBox="0 0 512 512" width="512" xmlns="http://www.w3.org/2000/svg"><g><g><path d="m452.915 181.606h-33.114c-4.143 0-7.5 3.358-7.5 7.5s3.357 7.5 7.5 7.5h33.114c8.158 0 14.796 6.638 14.796 14.796v270.801c0 8.159-6.638 14.796-14.796 14.796h-302.391c-8.159 0-14.797-6.638-14.797-14.796v-46.403c0-4.142-3.357-7.5-7.5-7.5s-7.5 3.358-7.5 7.5v46.404c0 16.43 13.367 29.796 29.797 29.796h302.391c16.43 0 29.796-13.367 29.796-29.796v-270.801c0-16.43-13.366-29.797-29.796-29.797z"/><path d="m300.787 403.384 85.022-85.023c3.522-3.522 5.463-8.205 5.463-13.187v-196.924c0-16.43-13.367-29.796-29.797-29.796h-105.851v-33.11c0-25.003-20.341-45.344-45.344-45.344-25.002 0-45.343 20.341-45.343 45.343v33.11h-105.852c-16.43 0-29.796 13.367-29.796 29.796v62.59c0 4.142 3.357 7.5 7.5 7.5s7.5-3.358 7.5-7.5v-62.59c0-8.159 6.638-14.796 14.796-14.796h105.853v4.174c0 22.447 16.399 41.126 37.843 44.712v22.368c0 4.142 3.357 7.5 7.5 7.5s7.5-3.358 7.5-7.5v-22.368c21.445-3.586 37.844-22.265 37.844-44.712v-4.174h105.852c8.159 0 14.797 6.638 14.797 14.796v194.042h-72.906c-10.283 0-18.648 8.366-18.648 18.648v72.906h-225.635c-8.158 0-14.796-6.638-14.796-14.797v-167.528c0-4.142-3.357-7.5-7.5-7.5s-7.5 3.358-7.5 7.5v167.53c0 16.43 13.366 29.797 29.796 29.797h228.516c4.98 0 9.664-1.94 13.186-5.463zm-90.507-388.384c16.731 0 30.344 13.612 30.344 30.343s-13.612 30.343-30.344 30.343-30.343-13.612-30.343-30.343 13.612-30.343 30.343-30.343zm30.344 82.627c0 16.731-13.612 30.343-30.344 30.343s-30.343-13.612-30.343-30.343v-18.622c8.042 7.256 18.684 11.682 30.343 11.682s22.302-4.426 30.344-11.682zm62.742 219.665h62.299l-65.947 65.948v-62.3c0-2.011 1.636-3.648 3.648-3.648z"/><path d="m132.822 214.526h154.916c4.143 0 7.5-3.358 7.5-7.5s-3.357-7.5-7.5-7.5h-154.916c-4.143 0-7.5 3.358-7.5 7.5s3.358 7.5 7.5 7.5z"/><path d="m132.822 261.101h154.916c4.143 0 7.5-3.358 7.5-7.5s-3.357-7.5-7.5-7.5h-154.916c-4.143 0-7.5 3.358-7.5 7.5s3.358 7.5 7.5 7.5z"/><path d="m132.822 307.675h108.861c4.143 0 7.5-3.358 7.5-7.5s-3.357-7.5-7.5-7.5h-108.861c-4.143 0-7.5 3.358-7.5 7.5s3.358 7.5 7.5 7.5z"/></g></g></svg>